<?xml version="1.0" encoding="utf-8"?>
<!-- Generator: Adobe Illustrator 25.3.1, SVG Export Plug-In . SVG Version: 6.00 Build 0)  -->
<svg version="1.1" id="Layer_1" xmlns="http://www.w3.org/2000/svg" xmlns:xlink="http://www.w3.org/1999/xlink" x="0px" y="0px"
	 viewBox="0 0 400 400" style="enable-background:new 0 0 400 400;" xml:space="preserve">
<style type="text/css">
	.st0{fill:#F14A3B;}
	.st1{fill:#0A0839;}
	.st2{fill-rule:evenodd;clip-rule:evenodd;fill:#0A0839;}
</style>
<g>
	<g>
		<circle class="st0" cx="200" cy="200" r="200"/>
		<path class="st1" d="M94.8,370.1l84.6-42.1c1.3-1.7,3.1-7.2,0-15.7c-3.1-8.5,1.3-14.4,3.9-16.3c1.1-9.2-0.9-26.3-17.9-21.4
			l-0.3,0.1c-21.2,6.2-45.6,13.2-31.7-21.4c-0.1-0.2-0.2-0.4-0.3-0.5c-3.9-6.8-9.7-16.7-26,10.7c0.9,4.5,1.5,15.4-3.9,23
			c-5.4,7.6-6,15.2-5.6,18c-6.2,13.7-23.5,35.3-43.7,12.4c-6.3-17.5-9-26-9.5-28.1c-1.1-3.4-0.2-10.3,12.3-11.2
			c15.7-1.1,21.9-1.1,20.7,11.2c-1.1,12.4,2.8,27.5,10.7,2.2c0-14.6,1.1-20.8,6.7-29.2c1.7-8.4,11.2-25.9,26.9-25.3
			c5.6-3.4,9.8-19.1,4.5-20.8c-0.6-1.5-3.8-3.3-12.3,1.7c-0.4-0.1-0.8-0.3-1.2-0.4c-4.6-1.6-10.8-3.7-0.5-18.1l0.1-0.2
			c7.2-15.6,10.6-22.9,17.3-25.7c-0.5-1.4-0.5-2.8-0.4-4.1c0.1-4.4,0.2-7.5-22-4.9c-28.6,3.4-29.7,1.1-12.3-13.5
			c17.4-14.6,28-27,29.7-42.7s34.8-45,42.6-46.1c-3.4-5.6-15.7-30.4,30.8-11.8c13.9,3.4,25.6,3.7,33.8,3.9c5.3,0.1,9.1,0.2,11.1,1.1
			c1.2,0.5,2.3,0.8,3.3,1.1c3.4,0.9,6,1.7,7.3,9c0.5,2.8,3.9,5,8.6,8.1c11.5,7.5,30.4,19.8,31.2,56.6c0.9,43.3,7.4,51.1,15,60.4
			c1.5,1.8,3,3.7,4.6,5.9c0.8,1.2,1.6,2.3,2.3,3.3c7.4,10.3,7.6,10.7-5.1,9.6c-2.7-1.2-5.2-2.6-7.6-3.9c-9.5-5.1-16.6-8.8-21.5,1
			c-4.9,9.9-8.8,15.4-10.1,16.9c-4.1,5.1-8.9,15.6,5,17.4c13.5,5.1,34.8,41.6,31.4,51.7c0,8.5,10.5,27.2,15.7,35.4l18.8,13.6
			c-36.2,36.4-86.4,59-141.8,59C161.4,400,125.4,389.1,94.8,370.1z"/>
		<path class="st2" d="M163.4,19.2c-1.1,1.3,1,4.7,2.8,4.7c1.3,0,3.4-2.7,3.2-4.1c-0.1-1-0.6-1.1-2.8-1.2
			C165.1,18.6,163.7,18.8,163.4,19.2z M101.1,30.6c-1.8,0.7-2.5,2.9-1.6,5.1c0.8,1.8,5.5,6.5,6.7,6.5c0.8,0,4.9-4.2,5.8-5.9
			c2.2-4.2-1.6-8-5.3-5.4c-1.1,0.8-1.3,0.8-2.5,0C102.8,29.9,102.8,29.9,101.1,30.6z M141,33.2c-1.1,1.2,1.1,5.1,2.9,5.1
			c1,0,3-2.9,2.8-4.1c-0.1-1-0.6-1.2-2.8-1.2C142.5,32.9,141.2,33.1,141,33.2z M120.8,46c-1.3,1.3-1.6,2.1-1.6,4.3
			c0,3.7,1.7,6.9,5.6,10.3c5.1,4.6,5.5,4.7,8.4,2.7c3-2.1,6.9-6.4,7.9-8.8c0.4-1,0.8-2.9,0.8-4.3c0-5.1-5-7.5-9.4-4.5l-1.9,1.3
			l-1.9-1.3C125.8,43.8,122.9,43.9,120.8,46z M175.2,48.7c-0.7,0.1-1.5,0.9-1.8,1.8c-0.9,2.1,0.4,4.9,3.4,7.2c2.5,2,3.1,1.8,6.2-1.7
			c1.7-1.9,2-2.6,1.9-4.3c-0.2-2.7-2.1-3.8-4.4-2.6c-1.3,0.7-1.8,0.7-2.8,0.1C176.9,48.8,175.8,48.6,175.2,48.7z M90.5,56.6
			c-3.2,3.2-1,8.9,4.9,13l2.2,1.6l1.9-1.2c2.5-1.5,5.2-4.7,6.3-7.1c2.2-5.2-2.5-9.4-6.7-6.1l-1.5,1.1l-1.5-1.1
			C94.4,55.2,91.9,55.2,90.5,56.6z M50.6,77.2c-1.6,0.5-2.7,2.5-2.7,4.7c0,2.2,2.4,5.9,5.6,8.4c2.8,2.2,2.9,2.3,4.3,1.4
			c2.2-1.4,3.9-3,5.7-5.4c1.9-2.6,2.2-6.1,0.6-8c-1.3-1.6-4.1-1.7-6.2-0.1c-1.5,1.1-1.6,1.1-2.5,0.1C54.3,76.9,52.5,76.5,50.6,77.2z
			 M84.6,87.6c-0.5,0.8,0.2,2.4,1.7,3.9l1.4,1.3l1.6-1.8c2.4-2.7,2-3.7-1.6-3.8C86.3,87.1,84.8,87.3,84.6,87.6z M99.1,97.9
			c-0.4,1,0.3,2.3,1.8,3.7c1,1,1.2,1,2.5,0.1c1.4-0.9,2.4-3.1,1.8-4C104.6,96.7,99.4,97,99.1,97.9z M156.2,99.7
			c-0.6,0.6-1.1,1.6-1.1,2.3c0,1.7,1.9,4.5,4.2,6.3l1.9,1.5l2.1-1.7c4.1-3.2,5.1-7.6,2-9c-1.1-0.5-1.6-0.4-2.8,0.3
			c-1.3,0.8-1.5,0.8-2.6,0.1C158.3,98.4,157.5,98.4,156.2,99.7z M44.8,102.4c-3.6,3-3.2,8.7,1.2,13.9c0.8,0.9,2.9,2.8,4.8,4.2
			l3.3,2.5l2.3-1.6c3.6-2.5,7.8-7.3,8.9-10.2c1.3-3.5,0.9-6.3-1.4-8.4c-1.5-1.4-2.1-1.5-4.2-1.3c-1.4,0.2-3,0.8-3.7,1.4
			c-1.6,1.5-1.5,1.5-4-0.2C49.6,101.2,46.5,101,44.8,102.4z M79.7,116.7c-0.5,0.5-0.9,1.8-0.9,2.9c0,1.7,0.4,2.4,2.8,4.7l2.8,2.7
			l1.6-1.1c2.9-2.1,4.4-4.4,4.4-6.7c0-1.8-0.2-2.3-1.4-2.8c-1.2-0.5-1.7-0.5-2.9,0.2c-1.3,0.7-1.7,0.8-2.5,0.1
			C82.2,115.5,80.8,115.6,79.7,116.7z M28,122.2c-0.8,1,0.7,3.9,2.3,4.4c1.6,0.5,3.9-1.7,3.7-3.6c-0.1-1.3-0.4-1.4-2.8-1.5
			C29.7,121.5,28.4,121.7,28,122.2z M153.7,124c-1.2,1.2,1.4,5.2,3.2,4.9c1.6-0.2,3.4-2.8,2.9-4.2c-0.3-0.9-0.8-1.1-3.1-1.1
			C155.2,123.7,153.8,123.9,153.7,124z M18.7,137.2c-1.7,1.4-2.1,4.5-0.9,7c1,2.2,6.5,7.5,7.7,7.5c0.4,0,1.8-0.8,3.1-1.8
			c5.5-4.2,7.3-9.6,4.2-12.3c-1.9-1.6-3.6-1.7-5.5-0.2l-1.4,1.1l-1.8-1.1C21.8,136,20.3,136,18.7,137.2z M57.4,134.7
			c-1.7,1.7-0.1,6.2,3.2,8.6c2,1.5,2.8,1.2,5.7-2.1c2.1-2.4,2.7-5.2,1.4-6.6c-0.9-0.9-3.3-0.9-4.2,0c-0.5,0.5-0.9,0.5-1.8,0
			C60.3,133.9,58.3,133.8,57.4,134.7z M42.1,141.3c-1.2,1.9,2.1,5.4,4,4.4c1.3-0.7,2.6-3.1,2.2-4.1C48,140.7,42.6,140.4,42.1,141.3z
			 M111.8,143.8c-0.8,0.8-0.3,3.1,1.1,4.4l1.4,1.4l1.6-1.6c0.9-0.9,1.6-2.1,1.6-2.8c0-1.4-1.5-2.2-2.4-1.4c-0.4,0.3-0.9,0.3-1.5,0
			C112.7,143.4,112.3,143.3,111.8,143.8z M49.2,156.9c-1.8,2.4-0.9,5.3,2.6,8.3l2.4,2l2.1-1.7c3.5-2.8,4.8-6.6,2.9-8.5
			c-1.1-1.1-2.5-1.1-3.8-0.1c-0.9,0.7-1.2,0.7-2.2,0C51.8,156,49.9,155.9,49.2,156.9z M13.2,164.8c-1.5,1.8-1.4,3.7,0,6.7
			c1,2.2,6.5,7.4,7.7,7.4c0.9,0,6.7-5.7,7.6-7.4c1.2-2.3,1.1-5.6-0.1-7c-1.2-1.4-4.2-1.4-6.1-0.2c-1.3,0.9-1.5,0.9-3,0
			C16.8,162.9,14.5,163.1,13.2,164.8z M71.3,170.1c-0.6,1,0.3,3.2,1.7,4.1c1.3,0.9,1.5,0.8,2.5-0.1c3.1-2.8,2.6-4.5-1.2-4.5
			C72.9,169.6,71.5,169.8,71.3,170.1z M69.2,188c-1.2,1.2-1.1,3.3,0.3,5.6c1.3,2,3.8,4.1,5.1,4.1c1.1,0,5.3-4.6,5.7-6.3
			c0.8-3.1-2.5-5.3-5-3.4c-0.9,0.7-1.2,0.7-2.2,0C71.6,186.9,70.3,186.9,69.2,188z M38,192.6c0,0.9,0.5,2,1.3,2.8
			c1.1,1,1.5,1.1,2.5,0.6c1.3-0.7,2.3-2.3,2.3-3.8c0-1-0.4-1.1-3-1.1C38.1,191.1,38,191.1,38,192.6z M62.6,213
			c-1.1,1.1,1.1,5.1,2.8,5.1c1.1,0,3.1-2.7,2.9-4c-0.2-1.1-0.5-1.3-2.8-1.4C64.1,212.8,62.7,212.9,62.6,213z M32.6,216.9
			c-0.4,1,0.7,3.1,2.1,4c0.9,0.6,1.3,0.5,2.2-0.3c1.3-1.1,2.1-2.9,1.7-3.8C38.3,215.7,33,215.9,32.6,216.9z M51.6,252.7
			c-1.1,1.1-0.6,2.8,1.2,4.2l1.4,1.1l1.6-1.5c1.6-1.6,2.1-3.7,0.8-4.2c-0.4-0.2-1.1-0.1-1.5,0.2c-0.4,0.3-1.2,0.2-1.7-0.1
			C52.7,252,52.2,252.1,51.6,252.7z"/>
		<path class="st1" d="M28.2,125.8c-1.5-1.7-1.6-3.5-0.4-4.5c0.6-0.5,1.6-0.4,2.4,0.1c0.8,0.5,0.8,0.5,1.3,0.1
			c0.2-0.2,0.8-0.4,1.2-0.5c0.7-0.1,0.9,0,1.4,0.4c0.8,0.7,0.9,1.6,0.5,2.7c-0.4,0.9-1.8,2.5-3,3.3L31,128l-1.1-0.8
			C29.2,126.7,28.5,126.1,28.2,125.8z"/>
		<path class="st1" d="M38.2,194.8c-1.5-1.7-1.6-3.5-0.4-4.5c0.6-0.5,1.6-0.4,2.4,0.1c0.8,0.5,0.8,0.5,1.3,0.1
			c0.2-0.2,0.8-0.4,1.2-0.5c0.7-0.1,0.9,0,1.4,0.4c0.8,0.7,0.9,1.6,0.5,2.7c-0.4,0.9-1.8,2.5-3,3.3L41,197l-1.1-0.8
			C39.2,195.7,38.5,195.1,38.2,194.8z"/>
		<path class="st1" d="M32.2,219.8c-1.5-1.7-1.6-3.5-0.4-4.5c0.6-0.5,1.6-0.4,2.4,0.1c0.8,0.5,0.8,0.5,1.3,0.1
			c0.2-0.2,0.8-0.4,1.2-0.5c0.7-0.1,0.9,0,1.4,0.4c0.8,0.7,0.9,1.6,0.5,2.7c-0.4,0.9-1.8,2.5-3,3.3L35,222l-1.1-0.8
			C33.2,220.7,32.5,220.1,32.2,219.8z"/>
		<path class="st1" d="M62.2,216.8c-1.5-1.7-1.6-3.5-0.4-4.5c0.6-0.5,1.6-0.4,2.4,0.1c0.8,0.5,0.8,0.5,1.3,0.1
			c0.2-0.2,0.8-0.4,1.2-0.5c0.7-0.1,0.9,0,1.4,0.4c0.8,0.7,0.9,1.6,0.5,2.7c-0.4,0.9-1.8,2.5-3,3.3L65,219l-1.1-0.8
			C63.2,217.7,62.5,217.1,62.2,216.8z"/>
		<path class="st1" d="M71.2,173.8c-1.5-1.7-1.6-3.5-0.4-4.5c0.6-0.5,1.6-0.4,2.4,0.1c0.8,0.5,0.8,0.5,1.3,0.1
			c0.2-0.2,0.8-0.4,1.2-0.5c0.7-0.1,0.9,0,1.4,0.4c0.8,0.7,0.9,1.6,0.5,2.7c-0.4,0.9-1.8,2.5-3,3.3L74,176l-1.1-0.8
			C72.2,174.7,71.5,174.1,71.2,173.8z"/>
		<path class="st1" d="M141.2,36.8c-1.5-1.7-1.6-3.5-0.4-4.5c0.6-0.5,1.6-0.4,2.4,0.1c0.8,0.5,0.8,0.5,1.3,0.1
			c0.2-0.2,0.8-0.4,1.2-0.5c0.7-0.1,0.9,0,1.4,0.4c0.8,0.7,0.9,1.6,0.5,2.7c-0.4,0.9-1.8,2.5-3,3.3L144,39l-1.1-0.8
			C142.2,37.7,141.5,37.1,141.2,36.8z"/>
		<path class="st1" d="M163.2,22.8c-1.5-1.7-1.6-3.5-0.4-4.5c0.6-0.5,1.6-0.4,2.4,0.1c0.8,0.5,0.8,0.5,1.3,0.1
			c0.2-0.2,0.8-0.4,1.2-0.5c0.7-0.1,0.9,0,1.4,0.4c0.8,0.7,0.9,1.6,0.5,2.7c-0.4,0.9-1.8,2.5-3,3.3L166,25l-1.1-0.8
			C164.2,23.7,163.5,23.1,163.2,22.8z"/>
		<path class="st1" d="M85.2,90.8c-1.5-1.7-1.6-3.5-0.4-4.5c0.6-0.5,1.6-0.4,2.4,0.1c0.8,0.5,0.8,0.5,1.3,0.1
			c0.2-0.2,0.8-0.4,1.2-0.5c0.7-0.1,0.9,0,1.4,0.4c0.8,0.7,0.9,1.6,0.5,2.7c-0.4,0.9-1.8,2.5-3,3.3L88,93l-1.1-0.8
			C86.2,91.7,85.5,91.1,85.2,90.8z"/>
		<path class="st1" d="M99.2,100.8c-1.5-1.7-1.6-3.5-0.4-4.5c0.6-0.5,1.6-0.4,2.4,0.1c0.8,0.5,0.8,0.5,1.3,0.1
			c0.2-0.2,0.8-0.4,1.2-0.5c0.7-0.1,0.9,0,1.4,0.4c0.8,0.7,0.9,1.6,0.5,2.7c-0.4,0.9-1.8,2.5-3,3.3L102,103l-1.1-0.8
			C100.2,101.7,99.5,101.1,99.2,100.8z"/>
		<path class="st1" d="M42.2,144.8c-1.5-1.7-1.6-3.5-0.4-4.5c0.6-0.5,1.6-0.4,2.4,0.1c0.8,0.5,0.8,0.5,1.3,0.1
			c0.2-0.2,0.8-0.4,1.2-0.5c0.7-0.1,0.9,0,1.4,0.4c0.8,0.7,0.9,1.6,0.5,2.7c-0.4,0.9-1.8,2.5-3,3.3L45,147l-1.1-0.8
			C43.2,145.7,42.5,145.1,42.2,144.8z"/>
	</g>
</g>
</svg>
